<?xml version="1.0" standalone="no"?>
<!DOCTYPE svg PUBLIC "-//W3C//DTD SVG 20010904//EN"
 "http://www.w3.org/TR/2001/REC-SVG-20010904/DTD/svg10.dtd">
<svg version="1.0" xmlns="http://www.w3.org/2000/svg"
 width="500.000000pt" height="500.000000pt" viewBox="0 0 500.000000 500.000000"
 preserveAspectRatio="xMidYMid meet">
<metadata>
Created by potrace 1.14, written by Peter Selinger 2001-2017
</metadata>
<g transform="translate(0.000000,500.000000) scale(0.100000,-0.100000)"
fill="#000000" stroke="none">
<path d="M2269 4195 c-2 -2 -37 -5 -77 -6 -41 -2 -76 -7 -78 -11 -3 -5 -10 -6
-15 -2 -8 5 -66 -35 -110 -76 -88 -84 -182 -162 -233 -194 -33 -21 -98 -76
-144 -122 -54 -53 -97 -87 -121 -95 -62 -20 -181 -79 -181 -90 0 -5 -4 -8 -9
-5 -5 3 -20 -5 -32 -19 -13 -13 -27 -25 -30 -25 -13 0 -100 -52 -95 -57 2 -3
34 12 70 32 l65 36 41 -32 c22 -18 42 -30 45 -28 2 3 -14 19 -37 37 l-41 31
27 12 c14 7 26 16 26 21 0 9 123 68 143 68 7 0 19 6 26 13 11 10 11 8 2 -10
-6 -12 -16 -24 -23 -26 -9 -4 -9 -6 -2 -6 13 -1 84 66 77 72 -5 6 163 164 189
178 11 6 -15 -31 -58 -83 -105 -126 -116 -142 -57 -81 28 28 55 58 59 66 23
40 129 139 169 158 25 12 48 25 51 30 7 12 -3 11 -29 -2 -20 -11 -20 -10 3 16
35 39 200 178 205 173 13 -13 -13 -51 -49 -72 -41 -24 -130 -92 -111 -85 31
12 224 152 219 160 -3 5 34 9 84 9 69 0 93 -4 102 -16 8 -8 23 -20 34 -26 15
-7 12 -2 -9 20 -26 25 -85 49 -96 37z m-135 -40 c-25 -19 -40 -19 -24 0 7 8
20 15 28 15 13 0 12 -3 -4 -15z"/>
<path d="M2476 4126 c116 -57 173 -82 207 -90 46 -11 30 0 -33 23 -33 12 -101
42 -150 67 -50 24 -95 44 -101 44 -7 0 28 -20 77 -44z"/>
<path d="M2232 4050 c0 -14 2 -19 5 -12 2 6 2 18 0 25 -3 6 -5 1 -5 -13z"/>
<path d="M2720 4030 c0 -11 50 -18 155 -24 l90 -5 -75 10 c-41 5 -96 13 -122
18 -27 4 -48 5 -48 1z"/>
<path d="M2345 4003 c3 -16 7 -39 11 -53 3 -14 7 -34 9 -45 1 -11 7 -33 14
-48 6 -16 11 -33 11 -38 0 -5 5 -9 10 -9 15 0 12 23 -9 71 -11 24 -23 68 -27
97 -3 28 -10 52 -15 52 -4 0 -6 -12 -4 -27z"/>
<path d="M2240 3991 c0 -17 4 -32 8 -35 4 -2 6 11 4 30 -5 42 -12 45 -12 5z"/>
<path d="M2616 3957 c3 -10 9 -15 12 -12 3 3 0 11 -7 18 -10 9 -11 8 -5 -6z"/>
<path d="M2251 3897 c2 -25 5 -44 8 -41 6 6 1 77 -6 84 -2 2 -3 -17 -2 -43z"/>
<path d="M2790 3861 c30 -82 49 -124 50 -108 0 13 -62 171 -72 182 -5 6 5 -28
22 -74z"/>
<path d="M2630 3921 c0 -6 4 -13 10 -16 6 -3 7 1 4 9 -7 18 -14 21 -14 7z"/>
<path d="M2262 3815 c0 -16 2 -22 5 -12 2 9 2 23 0 30 -3 6 -5 -1 -5 -18z"/>
<path d="M2972 3718 c15 -62 33 -131 40 -153 11 -36 46 -105 53 -105 2 0 -10
30 -25 68 -15 37 -39 116 -53 176 -15 60 -30 113 -35 118 -4 4 4 -42 20 -104z"/>
<path d="M3232 3794 c10 -10 20 -16 22 -13 3 3 -5 11 -17 18 -21 13 -21 12 -5
-5z"/>
<path d="M2400 3795 c0 -34 148 -516 171 -555 17 -29 9 2 -35 133 -24 72 -61
193 -82 267 -34 124 -53 180 -54 155z"/>
<path d="M2272 3750 c0 -19 2 -27 5 -17 2 9 2 25 0 35 -3 9 -5 1 -5 -18z"/>
<path d="M3130 3777 c0 -13 51 -109 56 -105 2 3 -9 29 -26 59 -16 30 -30 50
-30 46z"/>
<path d="M2846 3720 c11 -44 112 -301 158 -405 13 -27 33 -76 47 -108 13 -32
25 -54 27 -49 2 6 -29 85 -68 177 -40 92 -90 215 -112 273 -40 107 -66 162
-52 112z"/>
<path d="M2282 3690 c0 -14 2 -19 5 -12 2 6 2 18 0 25 -3 6 -5 1 -5 -13z"/>
<path d="M1691 3684 c0 -11 3 -14 6 -6 3 7 2 16 -1 19 -3 4 -6 -2 -5 -13z"/>
<path d="M1701 3644 c0 -11 3 -14 6 -6 3 7 2 16 -1 19 -3 4 -6 -2 -5 -13z"/>
<path d="M2291 3644 c0 -11 3 -14 6 -6 3 7 2 16 -1 19 -3 4 -6 -2 -5 -13z"/>
<path d="M3193 3650 c11 -33 89 -225 94 -230 15 -13 -46 151 -76 206 -12 21
-20 32 -18 24z"/>
<path d="M1563 3640 c34 -6 159 -84 212 -131 11 -10 38 -25 60 -35 22 -9 47
-22 55 -29 8 -8 53 -33 100 -56 47 -23 97 -50 113 -61 15 -11 53 -30 85 -42
31 -13 94 -43 139 -68 45 -25 84 -44 86 -42 2 2 58 -23 123 -57 65 -34 142
-73 169 -86 28 -14 102 -60 165 -102 63 -43 149 -97 190 -121 41 -24 97 -59
123 -78 26 -19 50 -32 53 -29 6 5 -117 90 -166 115 -14 7 -45 26 -70 42 -25
16 -58 37 -75 46 -16 9 -53 34 -80 54 -28 21 -82 54 -120 74 -68 36 -71 40
-104 112 -19 41 -36 72 -38 70 -2 -2 10 -32 27 -66 17 -34 29 -64 26 -67 -3
-3 -24 6 -46 21 -35 23 -181 94 -195 95 -9 1 -255 125 -380 191 -185 99 -212
114 -245 140 -90 70 -180 120 -212 119 l-33 -1 38 -8z"/>
<path d="M3470 3645 c0 -5 5 -17 10 -25 5 -8 10 -10 10 -5 0 6 -5 17 -10 25
-5 8 -10 11 -10 5z"/>
<path d="M1456 3632 c5 -5 34 -28 64 -51 l55 -43 -53 51 c-29 28 -58 51 -65
51 -7 0 -7 -3 -1 -8z"/>
<path d="M1826 3620 c3 -14 11 -32 16 -40 6 -10 7 -7 2 10 -3 14 -11 32 -16
40 -6 10 -7 7 -2 -10z"/>
<path d="M3380 3636 c0 -12 112 -222 168 -315 25 -41 48 -88 53 -105 4 -17 11
-42 15 -55 6 -20 4 -22 -12 -17 -10 3 -37 8 -58 11 -22 2 -42 8 -46 12 -10 12
-60 185 -60 208 0 21 -45 125 -54 125 -3 0 6 -33 19 -72 61 -183 69 -217 56
-258 -11 -36 -37 -62 -58 -59 -4 1 -24 0 -43 -1 l-35 -3 40 -6 c55 -9 74 -3
94 30 10 16 20 26 23 23 4 -3 17 -7 30 -9 62 -8 104 -17 109 -23 4 -4 12 -24
19 -44 6 -21 15 -40 20 -43 4 -2 1 14 -7 37 -10 30 -11 44 -3 46 7 3 6 8 -3
16 -21 16 -40 78 -27 86 7 5 6 11 -4 19 -8 7 -18 26 -21 42 -4 16 -12 29 -18
29 -12 0 -21 14 -90 140 -23 41 -56 102 -74 135 -18 33 -33 56 -33 51z"/>
<path d="M2290 3610 c0 -5 5 -10 11 -10 5 0 7 5 4 10 -3 6 -8 10 -11 10 -2 0
-4 -4 -4 -10z"/>
<path d="M3493 3589 c3 -10 11 -35 18 -58 7 -23 16 -41 20 -41 8 0 -27 100
-38 110 -4 3 -4 -2 0 -11z"/>
<path d="M2302 3580 c0 -8 4 -26 8 -40 6 -20 8 -21 8 -5 0 11 -3 29 -8 40 -5
12 -8 14 -8 5z"/>
<path d="M2694 3579 c-4 -7 0 -9 14 -5 17 6 23 2 28 -18 14 -56 -26 -76 -67
-33 l-21 22 11 -23 c16 -29 58 -47 77 -31 17 14 18 71 2 87 -15 15 -35 15 -44
1z"/>
<path d="M2194 3505 c12 -45 58 -171 66 -179 12 -13 -37 141 -56 172 -10 18
-13 21 -10 7z"/>
<path d="M2320 3479 c0 -13 5 -31 10 -39 7 -11 8 -5 4 20 -8 43 -14 51 -14 19z"/>
<path d="M1114 3479 c-6 -11 41 -58 61 -59 6 0 34 -22 63 -49 l52 -49 -62 -30
c-35 -17 -80 -33 -100 -37 -45 -9 -48 -19 -10 -39 15 -8 21 -15 15 -16 -7 0
-13 -6 -13 -14 0 -8 -24 -31 -52 -52 -46 -33 -50 -38 -33 -45 11 -4 32 -8 48
-8 29 -1 36 -15 12 -25 -8 -3 -15 -14 -15 -24 0 -17 7 -19 51 -17 37 2 48 0
40 -8 -17 -17 -13 -37 7 -37 26 0 34 -11 20 -27 -18 -22 -3 -25 46 -9 61 21
64 20 36 -6 -25 -24 -14 -36 19 -19 11 6 22 11 24 11 2 0 4 -79 3 -175 0 -115
3 -178 11 -186 17 -17 21 0 29 99 l7 92 28 0 c28 0 29 -2 29 -49 0 -35 -4 -51
-16 -55 -9 -3 -14 -11 -12 -18 5 -15 58 -30 58 -16 0 6 7 8 15 4 9 -3 15 0 15
8 0 8 19 22 43 31 23 9 57 31 76 50 26 27 39 33 57 29 14 -4 24 -2 24 4 0 12
-55 26 -68 18 -4 -2 -14 -1 -22 5 -18 11 131 10 175 -1 26 -7 22 -8 -22 -9
-29 0 -53 -6 -53 -11 0 -6 12 -8 26 -6 14 3 49 1 78 -5 82 -16 418 -21 410 -6
-4 7 4 3 17 -9 19 -16 31 -19 57 -14 17 4 32 6 32 5 0 -1 -6 -15 -14 -31 -12
-23 -14 -83 -14 -301 l2 -272 -29 -58 c-32 -65 -62 -103 -81 -103 -7 0 -17 -6
-21 -13 -23 -38 -191 -98 -336 -121 -174 -27 -435 -40 -486 -25 -49 15 -65 31
-84 86 -17 49 -12 92 12 100 75 27 111 52 111 79 0 9 -105 54 -127 54 -25 0
-73 57 -73 86 0 10 16 36 36 57 19 20 31 37 26 37 -6 0 -22 -14 -35 -30 -29
-34 -42 -25 -32 23 5 27 4 29 -6 13 -17 -27 -16 -161 2 -178 8 -7 45 -27 83
-43 37 -17 69 -35 69 -40 1 -6 -22 -19 -51 -31 -75 -30 -78 -35 -57 -86 9 -24
18 -51 20 -60 13 -63 57 -94 148 -104 98 -10 120 -11 131 -5 16 8 55 7 50 -1
-3 -4 0 -8 5 -8 6 0 11 5 11 11 0 7 12 9 32 7 31 -5 180 6 228 17 57 13 124
25 135 25 16 0 22 -22 34 -130 6 -47 22 -114 36 -150 14 -36 29 -87 32 -113 6
-48 51 -185 52 -158 1 12 4 12 13 3 25 -25 29 -11 6 20 -28 38 -43 76 -54 133
-4 22 -9 45 -10 50 -2 6 -9 30 -15 55 -7 25 -16 48 -21 51 -5 3 -10 32 -12 65
-6 78 -17 145 -28 166 -10 20 9 34 92 69 30 12 76 37 103 56 26 18 51 33 55
33 27 0 60 102 67 204 1 17 5 45 10 63 7 31 8 32 31 16 22 -14 27 -14 57 1 45
21 86 63 93 95 4 14 14 51 24 81 27 83 25 154 -5 208 -14 25 -24 47 -22 48 7
8 104 -31 146 -58 27 -17 47 -24 51 -18 4 6 29 -2 64 -21 31 -17 55 -33 52
-36 -5 -5 -61 23 -88 46 -10 8 -18 10 -18 4 0 -5 18 -19 40 -32 43 -24 52 -36
21 -28 -13 3 -18 1 -15 -8 3 -7 7 -127 9 -267 2 -230 6 -293 19 -353 3 -11 8
-67 11 -125 4 -58 11 -107 15 -110 12 -7 16 -63 6 -79 -6 -10 -5 -12 2 -7 7 4
12 4 13 -1 0 -4 2 -21 4 -38 3 -18 -4 -42 -17 -63 -22 -35 -33 -33 -41 8 -3
17 -5 12 -7 -17 -1 -24 -3 -46 -4 -50 -1 -5 -6 -37 -10 -73 -4 -36 -10 -74
-12 -85 -4 -15 -3 -17 4 -6 8 11 11 9 15 -10 2 -13 5 1 6 31 1 66 15 119 42
165 18 29 24 33 40 25 12 -7 19 -22 19 -43 1 -41 40 -150 64 -178 22 -27 22
-27 -101 -75 -88 -34 -111 -39 -105 -21 1 5 -2 6 -8 2 -5 -3 -10 -12 -10 -18
0 -7 -18 -19 -40 -29 -36 -15 -39 -15 -42 0 -2 10 -1 33 3 52 16 79 20 130 10
130 -11 0 -21 -52 -25 -139 l-3 -64 -58 -23 c-70 -29 -72 -29 -78 -7 -4 14 -5
14 -6 -3 -1 -18 -19 -28 -108 -59 -60 -20 -122 -39 -140 -42 -31 -5 -32 -5
-28 28 2 19 7 54 10 79 4 31 12 50 27 59 17 11 22 11 29 -1 5 -7 9 -18 9 -25
0 -7 7 -10 16 -6 10 4 12 9 5 16 -6 6 -4 18 7 35 9 15 15 29 12 32 -2 3 25 25
62 50 36 25 79 55 95 67 l30 22 -7 -39 c-4 -22 -4 -37 0 -35 4 3 11 21 14 40
7 36 40 75 63 75 7 0 10 -7 6 -17 -3 -10 -3 -15 1 -11 4 3 8 12 10 20 3 25 17
38 92 88 95 65 97 85 3 24 -90 -57 -101 -62 -93 -38 5 15 4 16 -4 4 -6 -8 -9
-17 -6 -21 2 -5 -16 -20 -41 -34 -25 -15 -42 -32 -38 -37 3 -7 1 -8 -5 -4 -15
9 -108 -61 -242 -182 -14 -12 -31 -20 -37 -17 -7 2 -14 -3 -15 -13 0 -9 -2
-21 -3 -27 -2 -5 -4 -14 -5 -20 -1 -5 -1 -26 0 -45 2 -64 -12 -84 -76 -104
-73 -23 -131 -51 -163 -80 -22 -20 -23 -20 -12 -1 6 11 27 45 46 75 19 30 43
71 54 91 23 42 46 63 61 54 5 -3 10 -2 10 4 0 16 43 52 57 47 7 -3 10 1 7 8
-3 8 5 21 17 30 13 8 20 18 17 21 -3 3 -20 -10 -39 -30 -19 -19 -38 -35 -43
-35 -5 0 -15 -8 -23 -18 -8 -9 -12 -11 -8 -4 12 24 -5 12 -60 -43 -31 -30 -52
-55 -47 -55 5 0 15 7 22 15 7 9 15 14 17 11 7 -7 -99 -170 -126 -193 -36 -32
-13 -29 66 9 37 17 81 33 98 34 35 3 225 66 225 75 0 8 -138 -33 -179 -54 -41
-20 -38 -20 -44 -3 -4 10 0 12 15 8 16 -4 19 -2 13 8 -5 9 -4 11 3 6 6 -4 25
0 42 9 16 8 32 15 35 15 8 1 27 7 115 38 47 17 126 44 175 61 189 62 454 168
479 192 19 17 19 18 -2 66 -11 26 -17 49 -12 51 6 2 3 17 -6 34 -19 37 -28 91
-13 82 6 -3 19 -20 30 -38 14 -23 19 -26 19 -12 0 10 -17 34 -37 52 -20 19
-42 46 -48 62 -12 27 -8 40 34 122 5 8 18 16 30 18 12 2 19 8 15 13 -3 6 -2
52 2 102 8 89 9 90 14 38 6 -66 24 -76 45 -24 43 105 64 136 66 96 2 -54 6
-70 21 -91 l16 -24 7 34 c4 18 12 42 18 53 9 18 12 16 27 -20 l17 -40 12 45
c6 25 17 63 23 85 6 22 11 43 10 48 -1 4 2 7 8 7 12 0 29 64 24 92 -3 15 1 12
11 -9 17 -37 30 -44 20 -12 -5 14 -3 19 3 15 21 -13 22 13 2 75 -15 48 -16 65
-7 71 8 5 7 8 -4 8 -9 0 -20 7 -23 16 -7 18 8 11 41 -19 14 -13 37 -20 65 -20
24 0 33 -2 21 -4 -12 -2 -24 -10 -26 -17 -4 -10 4 -11 32 -6 21 4 47 3 59 -1
17 -7 25 -2 41 25 12 18 21 37 21 42 0 5 20 42 45 82 25 40 45 79 45 86 0 8 4
17 9 20 5 3 9 17 8 31 0 31 -10 25 -27 -15 -7 -16 -17 -30 -22 -30 -5 0 -6 -4
-3 -10 3 -5 2 -10 -3 -10 -6 0 -13 -7 -16 -16 -3 -8 -2 -12 4 -9 6 3 10 1 10
-4 0 -6 -6 -11 -13 -11 -8 0 -19 -17 -25 -39 -15 -49 -50 -94 -68 -87 -8 3
-14 1 -14 -3 0 -5 -22 -1 -49 10 -55 20 -211 127 -211 144 0 6 -19 21 -42 33
-24 12 -99 51 -168 88 -190 101 -300 157 -366 183 -32 13 -89 39 -125 57 -37
18 -70 30 -73 27 -3 -4 -6 -1 -6 5 0 6 -22 23 -48 36 -27 14 -71 41 -97 62
-118 90 -185 133 -239 153 -32 12 -68 28 -80 36 -23 16 -40 20 -32 6 8 -13
-153 -2 -210 14 -28 8 -57 21 -63 29 -7 8 -25 18 -41 21 -38 8 -138 79 -224
159 -180 166 -265 236 -272 225z m257 -568 c-13 -23 -4 -32 24 -25 20 5 22 2
18 -20 -5 -25 10 -36 22 -16 3 5 19 19 36 31 l31 22 -17 -33 c-24 -46 -8 -57
43 -31 43 22 105 31 70 10 -10 -5 -18 -15 -18 -20 0 -6 4 -8 9 -5 5 3 12 -1
15 -10 6 -15 8 -15 25 1 26 22 92 38 84 19 -5 -13 -5 -13 152 0 22 2 58 11 80
20 41 16 116 35 170 41 22 2 38 -5 67 -31 21 -19 43 -34 48 -34 6 0 10 -6 10
-13 0 -7 12 -18 28 -25 15 -7 43 -21 62 -33 l35 -20 -70 6 c-38 4 -78 9 -87
11 -10 3 -18 1 -18 -5 0 -10 -115 -8 -200 3 -19 3 -71 8 -114 11 -44 4 -91 11
-105 17 -14 6 -55 10 -91 9 -66 -2 -251 15 -282 25 -12 3 -18 0 -18 -10 0 -8
13 -17 30 -21 39 -8 31 -23 -9 -17 -27 4 -31 8 -36 51 -3 25 -10 56 -16 69
-11 27 -5 42 17 42 11 0 12 -4 5 -19z m207 -141 c4 -12 2 -13 -9 -3 -8 6 -27
13 -44 16 -23 4 -20 4 9 3 25 -1 41 -6 44 -16z m382 -31 c26 -6 17 -7 -35 -4
-38 3 -78 5 -88 5 -10 0 -16 4 -13 9 6 9 79 4 136 -10z m-480 -28 c0 -16 -6
-31 -14 -34 -20 -8 -23 -1 -18 33 6 39 32 40 32 1z m74 19 c20 0 20 0 1 -14
-11 -8 -23 -12 -27 -10 -5 3 -8 -2 -8 -10 0 -8 -5 -18 -12 -22 -6 -4 -8 -3 -4
4 3 6 2 13 -4 17 -5 3 -10 15 -10 27 0 16 5 19 23 14 12 -3 31 -6 41 -6z m907
-41 c21 -15 27 -24 19 -29 -9 -6 -9 -10 2 -16 8 -5 25 -23 38 -41 26 -36 29
-90 9 -166 -6 -23 -10 -50 -10 -59 0 -10 -4 -20 -10 -23 -5 -4 -9 -14 -9 -25
0 -10 -13 -32 -29 -49 -23 -25 -37 -31 -69 -31 -33 0 -44 5 -61 29 -12 16 -18
36 -15 44 3 8 1 18 -4 21 -7 4 -8 67 -5 169 6 193 12 210 74 203 22 -3 53 -15
70 -27z m405 -184 c19 -14 18 -14 -2 -9 -14 4 -23 0 -27 -10 -9 -22 -32 -20
-34 3 -1 17 7 23 38 30 3 0 14 -6 25 -14z m64 -70 c0 -21 -12 -19 -48 11 -44
37 -40 49 8 24 22 -11 40 -27 40 -35z m30 25 c30 -16 48 -29 40 -29 -8 -1 -37
13 -65 29 -64 38 -47 38 25 0z m-81 -29 c21 -21 43 -50 47 -63 l8 -23 6 25 7
25 12 -25 c11 -24 11 -23 8 12 -3 36 -2 37 28 31 16 -4 32 -10 33 -15 2 -4 12
-8 21 -8 10 0 30 -9 43 -20 14 -10 27 -18 29 -16 2 2 10 -2 17 -10 10 -11 10
-14 0 -14 -7 -1 -3 -9 10 -20 26 -22 44 -86 21 -78 -8 3 -14 14 -13 26 0 12
-3 19 -7 16 -4 -2 -10 4 -12 13 -3 13 -5 11 -6 -6 -1 -24 -2 -24 -15 -5 -9 11
-10 21 -5 25 6 3 3 11 -6 19 -8 7 -15 20 -16 29 0 10 -4 6 -10 -9 -7 -17 -7
-26 0 -28 6 -2 11 -11 11 -20 -1 -27 -40 26 -40 54 0 12 -5 26 -11 29 -16 10
-24 -4 -11 -17 7 -7 12 -21 12 -32 -1 -21 -1 -21 -15 -2 -8 11 -15 30 -15 43
0 13 -5 23 -11 23 -6 0 -8 -8 -4 -19 4 -14 0 -21 -17 -27 -13 -4 -27 -7 -31
-6 -5 1 -6 -5 -3 -15 21 -74 27 -113 25 -167 -1 -44 2 -60 10 -58 9 2 10 -5 6
-19 -5 -16 -3 -20 6 -17 15 5 15 7 3 161 -5 70 -4 97 5 97 7 0 11 -24 11 -67
0 -38 5 -95 11 -128 7 -33 12 -72 12 -87 0 -15 4 -25 9 -21 6 3 4 -5 -2 -18
-18 -34 -24 -38 -15 -9 4 14 4 22 0 18 -5 -4 -14 0 -21 10 -17 24 -25 12 -28
-44 -5 -74 -5 -74 -17 -74 -7 0 -9 10 -5 28 12 50 16 106 9 127 -6 18 -8 16
-14 -10 -6 -29 -7 -28 -9 10 -1 22 -5 49 -10 60 -7 15 -9 10 -9 -23 -1 -26 -5
-41 -11 -37 -5 3 -8 35 -6 70 1 36 -1 65 -5 65 -9 0 -24 -41 -20 -55 1 -5 4
-28 7 -50 2 -22 5 -51 8 -65 2 -14 7 -60 11 -103 4 -42 10 -75 14 -72 4 2 6
19 5 37 l-3 33 8 -30 c5 -16 9 -43 9 -60 0 -16 -2 -22 -5 -13 -2 10 -10 15
-19 11 -10 -4 -14 4 -14 30 0 20 -4 39 -10 42 -6 3 -7 -1 -4 -9 3 -9 2 -16 -4
-16 -15 0 -23 30 -16 54 7 21 7 21 15 1 7 -18 8 -18 8 -2 1 10 -4 27 -9 38 -7
13 -7 19 0 19 5 0 10 5 10 10 0 6 -6 10 -14 10 -7 0 -21 17 -29 38 -9 20 -14
26 -11 12 6 -22 4 -23 -9 -10 -18 18 -35 106 -18 96 6 -4 11 -18 11 -32 0 -13
4 -24 9 -24 9 0 3 31 -18 100 -13 40 -13 220 -1 220 5 0 9 -28 9 -63 0 -34 4
-74 10 -89 6 -15 11 -46 12 -70 2 -59 10 -108 18 -108 3 0 7 53 8 118 1 64 5
116 10 115 5 -1 7 16 5 38 -5 47 -22 52 -22 7 -1 -31 -1 -32 -15 -14 -8 11
-15 27 -14 35 0 12 3 10 9 -4 6 -14 8 -6 7 28 -2 40 -4 45 -14 30 -12 -15 -13
-15 -13 -1 0 18 10 48 16 48 2 0 22 -18 43 -39z m68 -23 c-3 -8 -6 -5 -6 6 -1
11 2 17 5 13 3 -3 4 -12 1 -19z m-627 -78 c0 -5 -2 -10 -4 -10 -3 0 -8 5 -11
10 -3 6 -1 10 4 10 6 0 11 -4 11 -10z m730 -55 c0 -7 -4 -15 -9 -17 -5 -2 -3
-21 5 -43 15 -44 19 -120 5 -95 -16 27 -31 119 -25 149 6 30 24 34 24 6z m169
-16 c14 -11 20 -23 15 -28 -5 -5 -19 4 -32 20 -27 33 -18 38 17 8z m101 -41
c0 -11 -50 23 -71 48 -8 10 5 5 29 -11 23 -15 42 -32 42 -37z m-220 13 c0 -16
4 -31 8 -33 5 -1 12 -15 16 -31 5 -20 2 -29 -9 -33 -8 -3 -13 -9 -11 -13 2 -3
-2 -17 -10 -31 -13 -23 -14 -16 -11 72 1 54 5 98 10 98 4 0 7 -13 7 -29z m63
-43 c5 -37 3 -43 -12 -33 -13 8 -15 65 -2 65 5 0 11 -15 14 -32z m77 -30 c0
-14 -19 1 -31 25 -12 22 -12 22 10 3 11 -11 21 -23 21 -28z m-40 -4 c0 -22
-16 -17 -17 6 -1 11 2 18 8 15 5 -4 9 -13 9 -21z m74 1 c-4 -8 -10 -15 -15
-15 -5 0 -13 -9 -17 -21 -7 -19 -9 -19 -21 -5 -11 13 -11 16 2 16 9 0 21 9 27
20 12 23 32 27 24 5z m216 5 c0 -5 -4 -10 -10 -10 -5 0 -10 5 -10 10 0 6 5 10
10 10 6 0 10 -4 10 -10z m-340 -95 c0 -30 -5 -57 -12 -61 -8 -5 -10 4 -6 34 3
22 2 44 -3 49 -12 12 0 45 12 37 5 -3 9 -29 9 -59z m69 -28 c1 -10 -3 -16 -7
-13 -5 3 -9 20 -9 38 -1 27 1 29 7 13 5 -11 9 -28 9 -38z m41 26 c0 -20 -3
-24 -11 -16 -7 7 -9 19 -6 27 10 24 17 19 17 -11z m-155 -70 c-24 -36 -26 -26
-7 37 16 51 17 53 20 21 2 -18 -4 -43 -13 -58z m87 -26 c-10 -22 -22 11 -21
61 l1 57 12 -55 c7 -30 10 -58 8 -63z m-265 13 c0 -69 -13 -72 -16 -5 -1 30 2
55 7 55 5 0 9 -23 9 -50z m-75 0 c3 -16 1 -30 -4 -30 -5 0 -6 -6 -2 -12 4 -7
4 -10 -1 -6 -10 9 -16 90 -5 83 4 -3 10 -18 12 -35z m208 -4 c-6 -19 -18 -40
-27 -48 -9 -7 -14 -8 -12 -3 3 6 13 29 23 53 22 50 33 49 16 -2z m-56 -51 c6
-61 5 -68 -7 -55 -11 11 -13 31 -10 73 3 32 7 56 8 55 1 -2 5 -34 9 -73z m121
23 c-6 -101 -7 -105 -15 -53 -8 52 -3 95 10 95 4 0 6 -19 5 -42z m22 -25 c-3
-10 -5 -2 -5 17 0 19 2 27 5 18 2 -10 2 -26 0 -35z m-70 -5 c-3 -8 -6 -5 -6 6
-1 11 2 17 5 13 3 -3 4 -12 1 -19z m102 -22 c-9 -8 -10 -7 -5 7 3 10 7 24 7
30 1 7 3 4 6 -7 3 -10 -1 -23 -8 -30z m-139 -6 c0 -5 -5 -10 -11 -10 -5 0 -7
5 -4 10 3 6 8 10 11 10 2 0 4 -4 4 -10z m110 -15 c0 -14 -4 -25 -9 -25 -4 0
-6 11 -3 25 2 14 6 25 8 25 2 0 4 -11 4 -25z m-297 -85 c3 -11 2 -22 -3 -25
-4 -3 -10 6 -12 20 -6 30 7 34 15 5z m64 -93 c20 -42 20 -43 2 -65 l-18 -23
-16 31 c-18 34 -18 110 0 104 6 -3 21 -24 32 -47z m-84 3 c3 -11 1 -20 -4 -20
-5 0 -9 9 -9 20 0 11 2 20 4 20 2 0 6 -9 9 -20z m53 -124 c-10 -39 -22 -31
-23 16 -2 38 -1 40 14 26 10 -11 13 -25 9 -42z m-586 -451 c-7 -8 -17 -15 -22
-15 -6 0 -5 7 2 15 7 8 17 15 22 15 6 0 5 -7 -2 -15z m-254 -280 c-20 -15 -36
-19 -36 -10 0 5 38 23 50 24 3 0 -4 -6 -14 -14z"/>
<path d="M2461 2605 c9 -11 19 -27 22 -35 5 -13 6 -13 6 1 1 9 -9 24 -21 35
-23 19 -23 19 -7 -1z"/>
<path d="M2390 2559 c-12 -16 -20 -32 -17 -35 2 -3 14 11 25 31 26 43 21 46
-8 4z"/>
<path d="M2451 2466 c-2 -35 -25 -86 -36 -83 -5 2 -9 19 -8 37 1 30 0 31 -15
17 -8 -9 -17 -24 -18 -34 -1 -10 -5 -27 -9 -38 -5 -16 -3 -15 14 5 11 14 21
19 21 13 0 -7 8 -13 19 -13 23 0 44 47 38 86 -2 16 -5 20 -6 10z"/>
<path d="M2922 2310 c0 -19 2 -27 5 -17 2 9 2 25 0 35 -3 9 -5 1 -5 -18z"/>
<path d="M2880 2280 c0 -5 5 -10 10 -10 6 0 10 5 10 10 0 6 -4 10 -10 10 -5 0
-10 -4 -10 -10z"/>
<path d="M2882 2243 c2 -10 14 -20 27 -21 14 -2 21 0 17 7 -4 5 -13 8 -21 4
-8 -3 -15 -1 -15 5 0 6 6 13 13 15 7 3 4 6 -6 6 -12 1 -17 -5 -15 -16z"/>
<path d="M3011 2044 c0 -11 3 -14 6 -6 3 7 2 16 -1 19 -3 4 -6 -2 -5 -13z"/>
<path d="M3535 3455 c12 -57 37 -136 41 -132 7 6 -25 127 -38 147 -6 11 -7 6
-3 -15z"/>
<path d="M2683 3396 c18 -29 34 -52 36 -50 5 4 -47 91 -58 99 -5 3 5 -19 22
-49z"/>
<path d="M2820 3433 c0 -5 4 -13 9 -18 5 -6 17 -35 26 -65 10 -30 20 -50 22
-44 5 14 -35 122 -48 129 -5 4 -9 2 -9 -2z"/>
<path d="M1350 3389 c64 -51 84 -61 43 -20 -23 23 -48 41 -55 41 -7 0 -2 -9
12 -21z"/>
<path d="M3290 3404 c0 -18 52 -144 60 -144 4 0 -6 33 -22 73 -31 74 -38 87
-38 71z"/>
<path d="M1870 3385 c0 -18 132 -115 157 -115 4 0 -10 12 -32 27 -22 14 -59
42 -82 61 -24 19 -43 31 -43 27z"/>
<path d="M2347 3359 c4 -13 8 -18 11 -10 2 7 -1 18 -6 23 -8 8 -9 4 -5 -13z"/>
<path d="M3470 3335 c0 -5 5 -17 10 -25 5 -8 10 -10 10 -5 0 6 -5 17 -10 25
-5 8 -10 11 -10 5z"/>
<path d="M2721 3325 c0 -13 107 -233 108 -220 0 6 -24 60 -53 120 -30 61 -55
106 -55 100z"/>
<path d="M3140 3302 c0 -9 40 -35 46 -29 6 6 -25 37 -37 37 -5 0 -9 -3 -9 -8z"/>
<path d="M3099 3264 c-8 -28 16 -59 48 -61 33 -3 52 12 50 38 -2 26 -6 24 -17
-7 -9 -22 -13 -24 -25 -14 -12 10 -15 10 -15 0 0 -24 -29 10 -32 38 -3 24 -4
25 -9 6z"/>
<path d="M2917 3211 c3 -12 9 -21 14 -21 14 0 11 16 -5 29 -12 10 -13 8 -9 -8z"/>
<path d="M2220 3186 c0 -5 78 -56 87 -56 9 0 -70 59 -79 60 -5 0 -8 -2 -8 -4z"/>
<path d="M3080 3137 c0 -14 59 -135 70 -142 5 -3 -3 20 -18 52 -33 69 -51 101
-52 90z"/>
<path d="M1800 3126 c0 -2 7 -7 16 -10 8 -3 12 -2 9 4 -6 10 -25 14 -25 6z"/>
<path d="M2034 3121 c7 -11 91 -61 103 -61 4 0 -16 16 -44 35 -53 35 -69 43
-59 26z"/>
<path d="M1841 3106 c2 -2 15 -9 29 -15 24 -11 24 -11 6 3 -16 13 -49 24 -35
12z"/>
<path d="M3540 3058 c0 -13 5 -30 11 -38 8 -11 9 -8 4 14 -4 19 -2 32 7 37 10
7 9 9 -4 9 -12 0 -18 -8 -18 -22z"/>
<path d="M2846 3047 c3 -10 9 -15 12 -12 3 3 0 11 -7 18 -10 9 -11 8 -5 -6z"/>
<path d="M2488 3025 c28 -13 64 -27 80 -30 15 -3 3 6 -27 20 -30 14 -66 28
-80 30 -15 3 -2 -6 27 -20z"/>
<path d="M3300 3030 c6 -11 13 -20 16 -20 2 0 0 9 -6 20 -6 11 -13 20 -16 20
-2 0 0 -9 6 -20z"/>
<path d="M3626 2990 c-18 -46 -20 -66 -7 -74 5 -4 7 2 4 12 -2 11 3 36 11 57
9 21 15 40 12 42 -2 2 -11 -14 -20 -37z"/>
<path d="M3190 3006 c0 -13 133 -277 137 -272 5 5 -73 171 -111 236 -14 25
-26 41 -26 36z"/>
<path d="M3486 2997 c3 -10 9 -15 12 -12 3 3 0 11 -7 18 -10 9 -11 8 -5 -6z"/>
<path d="M3330 2967 c0 -11 33 -67 37 -64 5 6 -25 67 -32 67 -3 0 -5 -2 -5 -3z"/>
<path d="M3500 2963 c0 -15 73 -183 78 -178 3 2 -12 45 -33 95 -35 83 -45 102
-45 83z"/>
<path d="M2376 2945 c10 -8 23 -15 28 -15 6 0 1 7 -10 15 -10 8 -23 15 -28 15
-6 0 -1 -7 10 -15z"/>
<path d="M2738 2928 c18 -22 121 -92 127 -87 4 5 -82 69 -125 94 -13 7 -13 6
-2 -7z"/>
<path d="M3599 2894 c-1 -10 -1 -45 0 -77 2 -43 -1 -57 -9 -52 -9 5 -10 1 -4
-16 4 -13 9 -55 10 -94 1 -38 6 -80 10 -92 6 -13 9 46 9 157 0 98 -3 182 -7
186 -5 4 -9 -1 -9 -12z"/>
<path d="M2570 2877 c8 -8 31 -20 50 -26 45 -15 27 3 -25 24 -32 13 -37 14
-25 2z"/>
<path d="M3370 2887 c0 -11 92 -187 100 -192 13 -8 -3 28 -53 123 -33 62 -47
82 -47 69z"/>
<path d="M2460 2816 c0 -2 8 -10 18 -17 15 -13 16 -12 3 4 -13 16 -21 21 -21
13z"/>
<path d="M3046 2742 c51 -37 64 -44 64 -38 0 9 -81 66 -93 66 -6 0 8 -13 29
-28z"/>
<path d="M2890 2700 c19 -18 58 -43 85 -57 66 -33 48 -17 -45 41 -60 37 -68
40 -40 16z"/>
<path d="M2660 2717 c0 -3 30 -22 68 -42 37 -21 91 -51 121 -68 30 -17 51 -25
47 -19 -4 6 -51 36 -105 66 -103 58 -131 72 -131 63z"/>
<path d="M3325 2672 c43 -46 35 -53 -26 -21 -23 11 -43 18 -46 15 -6 -6 72
-46 91 -46 40 0 126 -154 134 -242 2 -32 8 -58 12 -58 15 0 -3 108 -28 160
-26 56 -95 163 -122 190 -37 38 -51 40 -15 2z"/>
<path d="M1176 2653 c-10 -39 -62 -139 -99 -191 l-32 -44 34 -29 c32 -26 39
-28 91 -22 36 3 65 1 79 -7 29 -15 42 -3 16 16 -14 10 -41 14 -88 13 -106 -3
-110 8 -47 114 52 86 76 155 61 170 -5 5 -12 -4 -15 -20z"/>
<path d="M3199 2569 c35 -22 65 -38 68 -36 5 6 -40 38 -84 61 -57 29 -49 17
16 -25z"/>
<path d="M3520 2609 c0 -4 7 -22 15 -40 8 -19 14 -27 14 -19 0 14 -28 72 -29
59z"/>
<path d="M3560 2510 c6 -11 13 -20 16 -20 2 0 0 9 -6 20 -6 11 -13 20 -16 20
-2 0 0 -9 6 -20z"/>
<path d="M3511 2504 c0 -11 3 -14 6 -6 3 7 2 16 -1 19 -3 4 -6 -2 -5 -13z"/>
<path d="M3097 2489 c7 -7 15 -10 18 -7 3 3 -2 9 -12 12 -14 6 -15 5 -6 -5z"/>
<path d="M3583 2463 c-23 -16 -32 -63 -12 -63 6 0 8 8 4 19 -4 14 3 24 27 40
18 11 26 21 18 20 -8 0 -25 -7 -37 -16z"/>
<path d="M3350 2356 c25 -14 50 -25 55 -25 16 -1 -48 36 -75 43 -14 4 -5 -4
20 -18z"/>
<path d="M3480 2266 c0 -8 -3 -23 -6 -33 -3 -10 2 -7 10 7 18 30 20 40 6 40
-5 0 -10 -6 -10 -14z"/>
<path d="M1261 2214 c-18 -25 -31 -47 -29 -50 3 -2 19 17 37 42 18 25 31 47
29 50 -3 2 -19 -17 -37 -42z"/>
<path d="M1221 2215 c-43 -49 -39 -58 6 -13 20 21 34 40 31 43 -3 3 -19 -10
-37 -30z"/>
<path d="M1295 2204 c-56 -65 -57 -88 -1 -35 25 25 43 47 41 49 -3 3 0 11 6
19 6 7 8 13 3 13 -5 0 -27 -21 -49 -46z"/>
<path d="M1368 2211 c-30 -19 -89 -83 -83 -90 3 -2 11 2 20 9 12 10 15 10 15
0 0 -12 23 15 47 55 6 11 15 19 20 18 5 -1 10 5 10 13 0 8 -1 14 -1 13 -1 0
-13 -8 -28 -18z"/>
<path d="M1398 2186 c-26 -24 -63 -84 -55 -92 2 -2 14 9 27 26 13 16 28 30 33
30 6 0 3 -8 -6 -18 -25 -28 -22 -49 4 -26 33 30 67 106 40 90 -5 -4 -11 -2
-13 3 -1 5 -15 -1 -30 -13z"/>
<path d="M1657 2066 c-3 -8 -2 -18 3 -21 13 -8 24 15 12 27 -6 6 -11 4 -15 -6z"/>
<path d="M2851 1424 c0 -11 3 -14 6 -6 3 7 2 16 -1 19 -3 4 -6 -2 -5 -13z"/>
<path d="M2697 1392 c-18 -20 -37 -66 -37 -90 1 -9 8 3 17 28 8 25 22 53 31
63 8 9 13 17 10 17 -3 0 -12 -8 -21 -18z"/>
<path d="M2971 1327 c-1 -15 6 -42 15 -60 36 -71 159 -267 167 -267 5 0 3 10
-5 23 -110 167 -143 226 -164 292 -11 36 -13 37 -13 12z"/>
<path d="M2880 1315 c-1 -5 -1 -26 0 -45 2 -47 20 -65 19 -19 0 33 -16 84 -19
64z"/>
<path d="M2214 1240 c9 -32 39 -101 43 -97 2 3 -8 29 -22 58 -14 30 -23 47
-21 39z"/>
<path d="M2126 1211 c-4 -5 -2 -12 3 -15 5 -4 12 -2 15 3 4 5 2 12 -3 15 -5 4
-12 2 -15 -3z"/>
<path d="M2876 1195 c4 -8 8 -15 10 -15 2 0 4 7 4 15 0 8 -4 15 -10 15 -5 0
-7 -7 -4 -15z"/>
<path d="M2493 1160 c0 -25 2 -35 4 -22 2 12 2 32 0 45 -2 12 -4 2 -4 -23z"/>
<path d="M2521 1184 c0 -11 3 -14 6 -6 3 7 2 16 -1 19 -3 4 -6 -2 -5 -13z"/>
<path d="M2802 1180 c0 -14 2 -19 5 -12 2 6 2 18 0 25 -3 6 -5 1 -5 -13z"/>
<path d="M2761 1174 c0 -11 3 -14 6 -6 3 7 2 16 -1 19 -3 4 -6 -2 -5 -13z"/>
<path d="M2421 1114 c0 -11 3 -14 6 -6 3 7 2 16 -1 19 -3 4 -6 -2 -5 -13z"/>
<path d="M2490 1090 c0 -5 5 -10 11 -10 5 0 7 5 4 10 -3 6 -8 10 -11 10 -2 0
-4 -4 -4 -10z"/>
<path d="M2091 978 c0 -9 -4 -25 -7 -35 -5 -17 -5 -17 6 0 6 10 9 25 7 35 -4
15 -5 15 -6 0z"/>
</g>
</svg>
